<?xml version="1.0" encoding="UTF-8" standalone="no"?>
<!DOCTYPE svg PUBLIC "-//W3C//DTD SVG 1.1//EN"
 "http://www.w3.org/Graphics/SVG/1.1/DTD/svg11.dtd">
<!-- Generated by graphviz version 2.46.1 (20210213.1702)
 -->
<!-- Pages: 1 -->
<svg width="566pt" height="1115pt"
 viewBox="0.00 0.00 566.00 1115.00" xmlns="http://www.w3.org/2000/svg" xmlns:xlink="http://www.w3.org/1999/xlink">
<g id="graph0" class="graph" transform="scale(1 1) rotate(0) translate(4 1111)">
<polygon fill="white" stroke="transparent" points="-4,4 -4,-1111 562,-1111 562,4 -4,4"/>
<text text-anchor="middle" x="279" y="-1063" font-family="Times New Roman,serif" font-size="50.00">a and b and (c in d)</text>
<!-- v0 -->
<g id="node1" class="node">
<title>v0</title>
<ellipse fill="none" stroke="black" cx="315" cy="-1026" rx="27" ry="18"/>
<text text-anchor="middle" x="315" y="-1022.3" font-family="Times New Roman,serif" font-size="14.00">E</text>
</g>
<!-- v1 -->
<g id="node2" class="node">
<title>v1</title>
<ellipse fill="none" stroke="black" cx="279" cy="-954" rx="27" ry="18"/>
<text text-anchor="middle" x="279" y="-950.3" font-family="Times New Roman,serif" font-size="14.00">X</text>
</g>
<!-- v0&#45;&gt;v1 -->
<g id="edge1" class="edge">
<title>v0&#45;&gt;v1</title>
<path fill="none" stroke="black" d="M306.65,-1008.76C302.29,-1000.28 296.85,-989.71 291.96,-980.2"/>
<polygon fill="black" stroke="black" points="294.99,-978.44 287.3,-971.15 288.77,-981.64 294.99,-978.44"/>
</g>
<!-- v44 -->
<g id="node45" class="node">
<title>v44</title>
<ellipse fill="none" stroke="black" cx="351" cy="-954" rx="27" ry="18"/>
<text text-anchor="middle" x="351" y="-950.3" font-family="Times New Roman,serif" font-size="14.00">E&#39;</text>
</g>
<!-- v0&#45;&gt;v44 -->
<g id="edge44" class="edge">
<title>v0&#45;&gt;v44</title>
<path fill="none" stroke="black" d="M323.35,-1008.76C327.71,-1000.28 333.15,-989.71 338.04,-980.2"/>
<polygon fill="black" stroke="black" points="341.23,-981.64 342.7,-971.15 335.01,-978.44 341.23,-981.64"/>
</g>
<!-- v2 -->
<g id="node3" class="node">
<title>v2</title>
<ellipse fill="none" stroke="black" cx="207" cy="-882" rx="27" ry="18"/>
<text text-anchor="middle" x="207" y="-878.3" font-family="Times New Roman,serif" font-size="14.00">C</text>
</g>
<!-- v1&#45;&gt;v2 -->
<g id="edge2" class="edge">
<title>v1&#45;&gt;v2</title>
<path fill="none" stroke="black" d="M264.43,-938.83C254.25,-928.94 240.48,-915.55 228.97,-904.36"/>
<polygon fill="black" stroke="black" points="231.41,-901.85 221.8,-897.38 226.53,-906.87 231.41,-901.85"/>
</g>
<!-- v42 -->
<g id="node43" class="node">
<title>v42</title>
<ellipse fill="none" stroke="black" cx="279" cy="-882" rx="27" ry="18"/>
<text text-anchor="middle" x="279" y="-878.3" font-family="Times New Roman,serif" font-size="14.00">X&#39;</text>
</g>
<!-- v1&#45;&gt;v42 -->
<g id="edge42" class="edge">
<title>v1&#45;&gt;v42</title>
<path fill="none" stroke="black" d="M279,-935.7C279,-927.98 279,-918.71 279,-910.11"/>
<polygon fill="black" stroke="black" points="282.5,-910.1 279,-900.1 275.5,-910.1 282.5,-910.1"/>
</g>
<!-- v3 -->
<g id="node4" class="node">
<title>v3</title>
<ellipse fill="none" stroke="black" cx="99" cy="-810" rx="27" ry="18"/>
<text text-anchor="middle" x="99" y="-806.3" font-family="Times New Roman,serif" font-size="14.00">N</text>
</g>
<!-- v2&#45;&gt;v3 -->
<g id="edge3" class="edge">
<title>v2&#45;&gt;v3</title>
<path fill="none" stroke="black" d="M188.19,-868.81C171,-857.67 145.38,-841.06 126.01,-828.5"/>
<polygon fill="black" stroke="black" points="127.89,-825.56 117.6,-823.05 124.08,-831.43 127.89,-825.56"/>
</g>
<!-- v8 -->
<g id="node9" class="node">
<title>v8</title>
<ellipse fill="none" stroke="black" cx="207" cy="-810" rx="27" ry="18"/>
<text text-anchor="middle" x="207" y="-806.3" font-family="Times New Roman,serif" font-size="14.00">C&#39;</text>
</g>
<!-- v2&#45;&gt;v8 -->
<g id="edge8" class="edge">
<title>v2&#45;&gt;v8</title>
<path fill="none" stroke="black" d="M207,-863.7C207,-855.98 207,-846.71 207,-838.11"/>
<polygon fill="black" stroke="black" points="210.5,-838.1 207,-828.1 203.5,-838.1 210.5,-838.1"/>
</g>
<!-- v4 -->
<g id="node5" class="node">
<title>v4</title>
<ellipse fill="none" stroke="black" cx="99" cy="-738" rx="27" ry="18"/>
<text text-anchor="middle" x="99" y="-734.3" font-family="Times New Roman,serif" font-size="14.00">U</text>
</g>
<!-- v3&#45;&gt;v4 -->
<g id="edge4" class="edge">
<title>v3&#45;&gt;v4</title>
<path fill="none" stroke="black" d="M99,-791.7C99,-783.98 99,-774.71 99,-766.11"/>
<polygon fill="black" stroke="black" points="102.5,-766.1 99,-756.1 95.5,-766.1 102.5,-766.1"/>
</g>
<!-- v5 -->
<g id="node6" class="node">
<title>v5</title>
<ellipse fill="none" stroke="blue" cx="27" cy="-666" rx="27" ry="18"/>
<text text-anchor="middle" x="27" y="-662.3" font-family="Times New Roman,serif" font-size="14.00">a</text>
</g>
<!-- v4&#45;&gt;v5 -->
<g id="edge5" class="edge">
<title>v4&#45;&gt;v5</title>
<path fill="none" stroke="black" d="M84.43,-722.83C74.25,-712.94 60.48,-699.55 48.97,-688.36"/>
<polygon fill="black" stroke="black" points="51.41,-685.85 41.8,-681.38 46.53,-690.87 51.41,-685.85"/>
</g>
<!-- v6 -->
<g id="node7" class="node">
<title>v6</title>
<ellipse fill="none" stroke="black" cx="99" cy="-666" rx="27" ry="18"/>
<text text-anchor="middle" x="99" y="-662.3" font-family="Times New Roman,serif" font-size="14.00">U&#39;</text>
</g>
<!-- v4&#45;&gt;v6 -->
<g id="edge6" class="edge">
<title>v4&#45;&gt;v6</title>
<path fill="none" stroke="black" d="M99,-719.7C99,-711.98 99,-702.71 99,-694.11"/>
<polygon fill="black" stroke="black" points="102.5,-694.1 99,-684.1 95.5,-694.1 102.5,-694.1"/>
</g>
<!-- v7 -->
<g id="node8" class="node">
<title>v7</title>
<ellipse fill="none" stroke="#cd5b45" cx="99" cy="-594" rx="27" ry="18"/>
<text text-anchor="middle" x="99" y="-590.3" font-family="Times New Roman,serif" font-size="14.00">ε</text>
</g>
<!-- v6&#45;&gt;v7 -->
<g id="edge7" class="edge">
<title>v6&#45;&gt;v7</title>
<path fill="none" stroke="black" d="M99,-647.7C99,-639.98 99,-630.71 99,-622.11"/>
<polygon fill="black" stroke="black" points="102.5,-622.1 99,-612.1 95.5,-622.1 102.5,-622.1"/>
</g>
<!-- v9 -->
<g id="node10" class="node">
<title>v9</title>
<ellipse fill="none" stroke="darkviolet" cx="171" cy="-738" rx="27" ry="18"/>
<text text-anchor="middle" x="171" y="-734.3" font-family="Times New Roman,serif" font-size="14.00">and</text>
</g>
<!-- v8&#45;&gt;v9 -->
<g id="edge9" class="edge">
<title>v8&#45;&gt;v9</title>
<path fill="none" stroke="black" d="M198.65,-792.76C194.29,-784.28 188.85,-773.71 183.96,-764.2"/>
<polygon fill="black" stroke="black" points="186.99,-762.44 179.3,-755.15 180.77,-765.64 186.99,-762.44"/>
</g>
<!-- v10 -->
<g id="node11" class="node">
<title>v10</title>
<ellipse fill="none" stroke="black" cx="243" cy="-738" rx="27" ry="18"/>
<text text-anchor="middle" x="243" y="-734.3" font-family="Times New Roman,serif" font-size="14.00">N</text>
</g>
<!-- v8&#45;&gt;v10 -->
<g id="edge10" class="edge">
<title>v8&#45;&gt;v10</title>
<path fill="none" stroke="black" d="M215.35,-792.76C219.71,-784.28 225.15,-773.71 230.04,-764.2"/>
<polygon fill="black" stroke="black" points="233.23,-765.64 234.7,-755.15 227.01,-762.44 233.23,-765.64"/>
</g>
<!-- v15 -->
<g id="node16" class="node">
<title>v15</title>
<ellipse fill="none" stroke="black" cx="351" cy="-738" rx="27" ry="18"/>
<text text-anchor="middle" x="351" y="-734.3" font-family="Times New Roman,serif" font-size="14.00">C&#39;</text>
</g>
<!-- v8&#45;&gt;v15 -->
<g id="edge15" class="edge">
<title>v8&#45;&gt;v15</title>
<path fill="none" stroke="black" d="M228.25,-798.67C252.6,-786.83 292.72,-767.33 320.43,-753.86"/>
<polygon fill="black" stroke="black" points="322.2,-756.89 329.67,-749.37 319.14,-750.6 322.2,-756.89"/>
</g>
<!-- v11 -->
<g id="node12" class="node">
<title>v11</title>
<ellipse fill="none" stroke="black" cx="243" cy="-666" rx="27" ry="18"/>
<text text-anchor="middle" x="243" y="-662.3" font-family="Times New Roman,serif" font-size="14.00">U</text>
</g>
<!-- v10&#45;&gt;v11 -->
<g id="edge11" class="edge">
<title>v10&#45;&gt;v11</title>
<path fill="none" stroke="black" d="M243,-719.7C243,-711.98 243,-702.71 243,-694.11"/>
<polygon fill="black" stroke="black" points="246.5,-694.1 243,-684.1 239.5,-694.1 246.5,-694.1"/>
</g>
<!-- v12 -->
<g id="node13" class="node">
<title>v12</title>
<ellipse fill="none" stroke="blue" cx="171" cy="-594" rx="27" ry="18"/>
<text text-anchor="middle" x="171" y="-590.3" font-family="Times New Roman,serif" font-size="14.00">b</text>
</g>
<!-- v11&#45;&gt;v12 -->
<g id="edge12" class="edge">
<title>v11&#45;&gt;v12</title>
<path fill="none" stroke="black" d="M228.43,-650.83C218.25,-640.94 204.48,-627.55 192.97,-616.36"/>
<polygon fill="black" stroke="black" points="195.41,-613.85 185.8,-609.38 190.53,-618.87 195.41,-613.85"/>
</g>
<!-- v13 -->
<g id="node14" class="node">
<title>v13</title>
<ellipse fill="none" stroke="black" cx="243" cy="-594" rx="27" ry="18"/>
<text text-anchor="middle" x="243" y="-590.3" font-family="Times New Roman,serif" font-size="14.00">U&#39;</text>
</g>
<!-- v11&#45;&gt;v13 -->
<g id="edge13" class="edge">
<title>v11&#45;&gt;v13</title>
<path fill="none" stroke="black" d="M243,-647.7C243,-639.98 243,-630.71 243,-622.11"/>
<polygon fill="black" stroke="black" points="246.5,-622.1 243,-612.1 239.5,-622.1 246.5,-622.1"/>
</g>
<!-- v14 -->
<g id="node15" class="node">
<title>v14</title>
<ellipse fill="none" stroke="#cd5b45" cx="243" cy="-522" rx="27" ry="18"/>
<text text-anchor="middle" x="243" y="-518.3" font-family="Times New Roman,serif" font-size="14.00">ε</text>
</g>
<!-- v13&#45;&gt;v14 -->
<g id="edge14" class="edge">
<title>v13&#45;&gt;v14</title>
<path fill="none" stroke="black" d="M243,-575.7C243,-567.98 243,-558.71 243,-550.11"/>
<polygon fill="black" stroke="black" points="246.5,-550.1 243,-540.1 239.5,-550.1 246.5,-550.1"/>
</g>
<!-- v16 -->
<g id="node17" class="node">
<title>v16</title>
<ellipse fill="none" stroke="darkviolet" cx="315" cy="-666" rx="27" ry="18"/>
<text text-anchor="middle" x="315" y="-662.3" font-family="Times New Roman,serif" font-size="14.00">and</text>
</g>
<!-- v15&#45;&gt;v16 -->
<g id="edge16" class="edge">
<title>v15&#45;&gt;v16</title>
<path fill="none" stroke="black" d="M342.65,-720.76C338.29,-712.28 332.85,-701.71 327.96,-692.2"/>
<polygon fill="black" stroke="black" points="330.99,-690.44 323.3,-683.15 324.77,-693.64 330.99,-690.44"/>
</g>
<!-- v17 -->
<g id="node18" class="node">
<title>v17</title>
<ellipse fill="none" stroke="black" cx="387" cy="-666" rx="27" ry="18"/>
<text text-anchor="middle" x="387" y="-662.3" font-family="Times New Roman,serif" font-size="14.00">N</text>
</g>
<!-- v15&#45;&gt;v17 -->
<g id="edge17" class="edge">
<title>v15&#45;&gt;v17</title>
<path fill="none" stroke="black" d="M359.35,-720.76C363.71,-712.28 369.15,-701.71 374.04,-692.2"/>
<polygon fill="black" stroke="black" points="377.23,-693.64 378.7,-683.15 371.01,-690.44 377.23,-693.64"/>
</g>
<!-- v40 -->
<g id="node41" class="node">
<title>v40</title>
<ellipse fill="none" stroke="black" cx="459" cy="-666" rx="27" ry="18"/>
<text text-anchor="middle" x="459" y="-662.3" font-family="Times New Roman,serif" font-size="14.00">C&#39;</text>
</g>
<!-- v15&#45;&gt;v40 -->
<g id="edge40" class="edge">
<title>v15&#45;&gt;v40</title>
<path fill="none" stroke="black" d="M369.81,-724.81C387,-713.67 412.62,-697.06 431.99,-684.5"/>
<polygon fill="black" stroke="black" points="433.92,-687.43 440.4,-679.05 430.11,-681.56 433.92,-687.43"/>
</g>
<!-- v18 -->
<g id="node19" class="node">
<title>v18</title>
<ellipse fill="none" stroke="black" cx="387" cy="-594" rx="27" ry="18"/>
<text text-anchor="middle" x="387" y="-590.3" font-family="Times New Roman,serif" font-size="14.00">U</text>
</g>
<!-- v17&#45;&gt;v18 -->
<g id="edge18" class="edge">
<title>v17&#45;&gt;v18</title>
<path fill="none" stroke="black" d="M387,-647.7C387,-639.98 387,-630.71 387,-622.11"/>
<polygon fill="black" stroke="black" points="390.5,-622.1 387,-612.1 383.5,-622.1 390.5,-622.1"/>
</g>
<!-- v19 -->
<g id="node20" class="node">
<title>v19</title>
<ellipse fill="none" stroke="darkviolet" cx="315" cy="-522" rx="27" ry="18"/>
<text text-anchor="middle" x="315" y="-518.3" font-family="Times New Roman,serif" font-size="14.00">(</text>
</g>
<!-- v18&#45;&gt;v19 -->
<g id="edge19" class="edge">
<title>v18&#45;&gt;v19</title>
<path fill="none" stroke="black" d="M372.43,-578.83C362.25,-568.94 348.48,-555.55 336.97,-544.36"/>
<polygon fill="black" stroke="black" points="339.41,-541.85 329.8,-537.38 334.53,-546.87 339.41,-541.85"/>
</g>
<!-- v20 -->
<g id="node21" class="node">
<title>v20</title>
<ellipse fill="none" stroke="black" cx="387" cy="-522" rx="27" ry="18"/>
<text text-anchor="middle" x="387" y="-518.3" font-family="Times New Roman,serif" font-size="14.00">E</text>
</g>
<!-- v18&#45;&gt;v20 -->
<g id="edge20" class="edge">
<title>v18&#45;&gt;v20</title>
<path fill="none" stroke="black" d="M387,-575.7C387,-567.98 387,-558.71 387,-550.11"/>
<polygon fill="black" stroke="black" points="390.5,-550.1 387,-540.1 383.5,-550.1 390.5,-550.1"/>
</g>
<!-- v37 -->
<g id="node38" class="node">
<title>v37</title>
<ellipse fill="none" stroke="darkviolet" cx="459" cy="-522" rx="27" ry="18"/>
<text text-anchor="middle" x="459" y="-518.3" font-family="Times New Roman,serif" font-size="14.00">)</text>
</g>
<!-- v18&#45;&gt;v37 -->
<g id="edge37" class="edge">
<title>v18&#45;&gt;v37</title>
<path fill="none" stroke="black" d="M401.57,-578.83C411.75,-568.94 425.52,-555.55 437.03,-544.36"/>
<polygon fill="black" stroke="black" points="439.47,-546.87 444.2,-537.38 434.59,-541.85 439.47,-546.87"/>
</g>
<!-- v38 -->
<g id="node39" class="node">
<title>v38</title>
<ellipse fill="none" stroke="black" cx="531" cy="-522" rx="27" ry="18"/>
<text text-anchor="middle" x="531" y="-518.3" font-family="Times New Roman,serif" font-size="14.00">U&#39;</text>
</g>
<!-- v18&#45;&gt;v38 -->
<g id="edge38" class="edge">
<title>v18&#45;&gt;v38</title>
<path fill="none" stroke="black" d="M408.25,-582.67C432.6,-570.83 472.72,-551.33 500.43,-537.86"/>
<polygon fill="black" stroke="black" points="502.2,-540.89 509.67,-533.37 499.14,-534.6 502.2,-540.89"/>
</g>
<!-- v21 -->
<g id="node22" class="node">
<title>v21</title>
<ellipse fill="none" stroke="black" cx="351" cy="-450" rx="27" ry="18"/>
<text text-anchor="middle" x="351" y="-446.3" font-family="Times New Roman,serif" font-size="14.00">X</text>
</g>
<!-- v20&#45;&gt;v21 -->
<g id="edge21" class="edge">
<title>v20&#45;&gt;v21</title>
<path fill="none" stroke="black" d="M378.65,-504.76C374.29,-496.28 368.85,-485.71 363.96,-476.2"/>
<polygon fill="black" stroke="black" points="366.99,-474.44 359.3,-467.15 360.77,-477.64 366.99,-474.44"/>
</g>
<!-- v35 -->
<g id="node36" class="node">
<title>v35</title>
<ellipse fill="none" stroke="black" cx="423" cy="-450" rx="27" ry="18"/>
<text text-anchor="middle" x="423" y="-446.3" font-family="Times New Roman,serif" font-size="14.00">E&#39;</text>
</g>
<!-- v20&#45;&gt;v35 -->
<g id="edge35" class="edge">
<title>v20&#45;&gt;v35</title>
<path fill="none" stroke="black" d="M395.35,-504.76C399.71,-496.28 405.15,-485.71 410.04,-476.2"/>
<polygon fill="black" stroke="black" points="413.23,-477.64 414.7,-467.15 407.01,-474.44 413.23,-477.64"/>
</g>
<!-- v22 -->
<g id="node23" class="node">
<title>v22</title>
<ellipse fill="none" stroke="black" cx="279" cy="-378" rx="27" ry="18"/>
<text text-anchor="middle" x="279" y="-374.3" font-family="Times New Roman,serif" font-size="14.00">C</text>
</g>
<!-- v21&#45;&gt;v22 -->
<g id="edge22" class="edge">
<title>v21&#45;&gt;v22</title>
<path fill="none" stroke="black" d="M336.43,-434.83C326.25,-424.94 312.48,-411.55 300.97,-400.36"/>
<polygon fill="black" stroke="black" points="303.41,-397.85 293.8,-393.38 298.53,-402.87 303.41,-397.85"/>
</g>
<!-- v33 -->
<g id="node34" class="node">
<title>v33</title>
<ellipse fill="none" stroke="black" cx="351" cy="-378" rx="27" ry="18"/>
<text text-anchor="middle" x="351" y="-374.3" font-family="Times New Roman,serif" font-size="14.00">X&#39;</text>
</g>
<!-- v21&#45;&gt;v33 -->
<g id="edge33" class="edge">
<title>v21&#45;&gt;v33</title>
<path fill="none" stroke="black" d="M351,-431.7C351,-423.98 351,-414.71 351,-406.11"/>
<polygon fill="black" stroke="black" points="354.5,-406.1 351,-396.1 347.5,-406.1 354.5,-406.1"/>
</g>
<!-- v23 -->
<g id="node24" class="node">
<title>v23</title>
<ellipse fill="none" stroke="black" cx="207" cy="-306" rx="27" ry="18"/>
<text text-anchor="middle" x="207" y="-302.3" font-family="Times New Roman,serif" font-size="14.00">N</text>
</g>
<!-- v22&#45;&gt;v23 -->
<g id="edge23" class="edge">
<title>v22&#45;&gt;v23</title>
<path fill="none" stroke="black" d="M264.43,-362.83C254.25,-352.94 240.48,-339.55 228.97,-328.36"/>
<polygon fill="black" stroke="black" points="231.41,-325.85 221.8,-321.38 226.53,-330.87 231.41,-325.85"/>
</g>
<!-- v31 -->
<g id="node32" class="node">
<title>v31</title>
<ellipse fill="none" stroke="black" cx="279" cy="-306" rx="27" ry="18"/>
<text text-anchor="middle" x="279" y="-302.3" font-family="Times New Roman,serif" font-size="14.00">C&#39;</text>
</g>
<!-- v22&#45;&gt;v31 -->
<g id="edge31" class="edge">
<title>v22&#45;&gt;v31</title>
<path fill="none" stroke="black" d="M279,-359.7C279,-351.98 279,-342.71 279,-334.11"/>
<polygon fill="black" stroke="black" points="282.5,-334.1 279,-324.1 275.5,-334.1 282.5,-334.1"/>
</g>
<!-- v24 -->
<g id="node25" class="node">
<title>v24</title>
<ellipse fill="none" stroke="black" cx="207" cy="-234" rx="27" ry="18"/>
<text text-anchor="middle" x="207" y="-230.3" font-family="Times New Roman,serif" font-size="14.00">U</text>
</g>
<!-- v23&#45;&gt;v24 -->
<g id="edge24" class="edge">
<title>v23&#45;&gt;v24</title>
<path fill="none" stroke="black" d="M207,-287.7C207,-279.98 207,-270.71 207,-262.11"/>
<polygon fill="black" stroke="black" points="210.5,-262.1 207,-252.1 203.5,-262.1 210.5,-262.1"/>
</g>
<!-- v25 -->
<g id="node26" class="node">
<title>v25</title>
<ellipse fill="none" stroke="blue" cx="171" cy="-162" rx="27" ry="18"/>
<text text-anchor="middle" x="171" y="-158.3" font-family="Times New Roman,serif" font-size="14.00">c</text>
</g>
<!-- v24&#45;&gt;v25 -->
<g id="edge25" class="edge">
<title>v24&#45;&gt;v25</title>
<path fill="none" stroke="black" d="M198.65,-216.76C194.29,-208.28 188.85,-197.71 183.96,-188.2"/>
<polygon fill="black" stroke="black" points="186.99,-186.44 179.3,-179.15 180.77,-189.64 186.99,-186.44"/>
</g>
<!-- v26 -->
<g id="node27" class="node">
<title>v26</title>
<ellipse fill="none" stroke="black" cx="243" cy="-162" rx="27" ry="18"/>
<text text-anchor="middle" x="243" y="-158.3" font-family="Times New Roman,serif" font-size="14.00">U&#39;</text>
</g>
<!-- v24&#45;&gt;v26 -->
<g id="edge26" class="edge">
<title>v24&#45;&gt;v26</title>
<path fill="none" stroke="black" d="M215.35,-216.76C219.71,-208.28 225.15,-197.71 230.04,-188.2"/>
<polygon fill="black" stroke="black" points="233.23,-189.64 234.7,-179.15 227.01,-186.44 233.23,-189.64"/>
</g>
<!-- v27 -->
<g id="node28" class="node">
<title>v27</title>
<ellipse fill="none" stroke="darkviolet" cx="171" cy="-90" rx="27" ry="18"/>
<text text-anchor="middle" x="171" y="-86.3" font-family="Times New Roman,serif" font-size="14.00">in</text>
</g>
<!-- v26&#45;&gt;v27 -->
<g id="edge27" class="edge">
<title>v26&#45;&gt;v27</title>
<path fill="none" stroke="black" d="M228.43,-146.83C218.25,-136.94 204.48,-123.55 192.97,-112.36"/>
<polygon fill="black" stroke="black" points="195.41,-109.85 185.8,-105.38 190.53,-114.87 195.41,-109.85"/>
</g>
<!-- v28 -->
<g id="node29" class="node">
<title>v28</title>
<ellipse fill="none" stroke="blue" cx="243" cy="-90" rx="27" ry="18"/>
<text text-anchor="middle" x="243" y="-86.3" font-family="Times New Roman,serif" font-size="14.00">d</text>
</g>
<!-- v26&#45;&gt;v28 -->
<g id="edge28" class="edge">
<title>v26&#45;&gt;v28</title>
<path fill="none" stroke="black" d="M243,-143.7C243,-135.98 243,-126.71 243,-118.11"/>
<polygon fill="black" stroke="black" points="246.5,-118.1 243,-108.1 239.5,-118.1 246.5,-118.1"/>
</g>
<!-- v29 -->
<g id="node30" class="node">
<title>v29</title>
<ellipse fill="none" stroke="black" cx="315" cy="-90" rx="27" ry="18"/>
<text text-anchor="middle" x="315" y="-86.3" font-family="Times New Roman,serif" font-size="14.00">U&#39;</text>
</g>
<!-- v26&#45;&gt;v29 -->
<g id="edge29" class="edge">
<title>v26&#45;&gt;v29</title>
<path fill="none" stroke="black" d="M257.57,-146.83C267.75,-136.94 281.52,-123.55 293.03,-112.36"/>
<polygon fill="black" stroke="black" points="295.47,-114.87 300.2,-105.38 290.59,-109.85 295.47,-114.87"/>
</g>
<!-- v30 -->
<g id="node31" class="node">
<title>v30</title>
<ellipse fill="none" stroke="#cd5b45" cx="315" cy="-18" rx="27" ry="18"/>
<text text-anchor="middle" x="315" y="-14.3" font-family="Times New Roman,serif" font-size="14.00">ε</text>
</g>
<!-- v29&#45;&gt;v30 -->
<g id="edge30" class="edge">
<title>v29&#45;&gt;v30</title>
<path fill="none" stroke="black" d="M315,-71.7C315,-63.98 315,-54.71 315,-46.11"/>
<polygon fill="black" stroke="black" points="318.5,-46.1 315,-36.1 311.5,-46.1 318.5,-46.1"/>
</g>
<!-- v32 -->
<g id="node33" class="node">
<title>v32</title>
<ellipse fill="none" stroke="#cd5b45" cx="279" cy="-234" rx="27" ry="18"/>
<text text-anchor="middle" x="279" y="-230.3" font-family="Times New Roman,serif" font-size="14.00">ε</text>
</g>
<!-- v31&#45;&gt;v32 -->
<g id="edge32" class="edge">
<title>v31&#45;&gt;v32</title>
<path fill="none" stroke="black" d="M279,-287.7C279,-279.98 279,-270.71 279,-262.11"/>
<polygon fill="black" stroke="black" points="282.5,-262.1 279,-252.1 275.5,-262.1 282.5,-262.1"/>
</g>
<!-- v34 -->
<g id="node35" class="node">
<title>v34</title>
<ellipse fill="none" stroke="#cd5b45" cx="351" cy="-306" rx="27" ry="18"/>
<text text-anchor="middle" x="351" y="-302.3" font-family="Times New Roman,serif" font-size="14.00">ε</text>
</g>
<!-- v33&#45;&gt;v34 -->
<g id="edge34" class="edge">
<title>v33&#45;&gt;v34</title>
<path fill="none" stroke="black" d="M351,-359.7C351,-351.98 351,-342.71 351,-334.11"/>
<polygon fill="black" stroke="black" points="354.5,-334.1 351,-324.1 347.5,-334.1 354.5,-334.1"/>
</g>
<!-- v36 -->
<g id="node37" class="node">
<title>v36</title>
<ellipse fill="none" stroke="#cd5b45" cx="423" cy="-378" rx="27" ry="18"/>
<text text-anchor="middle" x="423" y="-374.3" font-family="Times New Roman,serif" font-size="14.00">ε</text>
</g>
<!-- v35&#45;&gt;v36 -->
<g id="edge36" class="edge">
<title>v35&#45;&gt;v36</title>
<path fill="none" stroke="black" d="M423,-431.7C423,-423.98 423,-414.71 423,-406.11"/>
<polygon fill="black" stroke="black" points="426.5,-406.1 423,-396.1 419.5,-406.1 426.5,-406.1"/>
</g>
<!-- v39 -->
<g id="node40" class="node">
<title>v39</title>
<ellipse fill="none" stroke="#cd5b45" cx="531" cy="-450" rx="27" ry="18"/>
<text text-anchor="middle" x="531" y="-446.3" font-family="Times New Roman,serif" font-size="14.00">ε</text>
</g>
<!-- v38&#45;&gt;v39 -->
<g id="edge39" class="edge">
<title>v38&#45;&gt;v39</title>
<path fill="none" stroke="black" d="M531,-503.7C531,-495.98 531,-486.71 531,-478.11"/>
<polygon fill="black" stroke="black" points="534.5,-478.1 531,-468.1 527.5,-478.1 534.5,-478.1"/>
</g>
<!-- v41 -->
<g id="node42" class="node">
<title>v41</title>
<ellipse fill="none" stroke="#cd5b45" cx="459" cy="-594" rx="27" ry="18"/>
<text text-anchor="middle" x="459" y="-590.3" font-family="Times New Roman,serif" font-size="14.00">ε</text>
</g>
<!-- v40&#45;&gt;v41 -->
<g id="edge41" class="edge">
<title>v40&#45;&gt;v41</title>
<path fill="none" stroke="black" d="M459,-647.7C459,-639.98 459,-630.71 459,-622.11"/>
<polygon fill="black" stroke="black" points="462.5,-622.1 459,-612.1 455.5,-622.1 462.5,-622.1"/>
</g>
<!-- v43 -->
<g id="node44" class="node">
<title>v43</title>
<ellipse fill="none" stroke="#cd5b45" cx="279" cy="-810" rx="27" ry="18"/>
<text text-anchor="middle" x="279" y="-806.3" font-family="Times New Roman,serif" font-size="14.00">ε</text>
</g>
<!-- v42&#45;&gt;v43 -->
<g id="edge43" class="edge">
<title>v42&#45;&gt;v43</title>
<path fill="none" stroke="black" d="M279,-863.7C279,-855.98 279,-846.71 279,-838.11"/>
<polygon fill="black" stroke="black" points="282.5,-838.1 279,-828.1 275.5,-838.1 282.5,-838.1"/>
</g>
<!-- v45 -->
<g id="node46" class="node">
<title>v45</title>
<ellipse fill="none" stroke="#cd5b45" cx="351" cy="-882" rx="27" ry="18"/>
<text text-anchor="middle" x="351" y="-878.3" font-family="Times New Roman,serif" font-size="14.00">ε</text>
</g>
<!-- v44&#45;&gt;v45 -->
<g id="edge45" class="edge">
<title>v44&#45;&gt;v45</title>
<path fill="none" stroke="black" d="M351,-935.7C351,-927.98 351,-918.71 351,-910.11"/>
<polygon fill="black" stroke="black" points="354.5,-910.1 351,-900.1 347.5,-910.1 354.5,-910.1"/>
</g>
</g>
</svg>
